# xmcd
#
# Track frame offsets:
#	150
#	19799
#	39245
#	60262
#	78127
#	94340
#	108954
#	126816
#	144656
#	156080
#	172023
#	186487
#	203287
#	221140
#	237072
#	255461
#	276963
#	293326
#	309594
#
# Disc length: 4449
#
# Revision: 2
# Processed by: cddbd v1.5.1PL0 Copyright (c) Steve Scherf et al.
# Submitted via: audiograbber 1.80.04
# Normalized: r1:TDELIM( - )
#
DISCID=fe115f13
DTITLE=Various Artist - Global Sounds CD1
DYEAR=2000
DGENRE=Latino
TTITLE0=Chan Chan - Compay segundo
TTITLE1=Aicha - Khaled
TTITLE2=Son al Son - Orquesta aragon
TTITLE3=Eallin (life) - Mari boine band
TTITLE4=Fado-mae - Dulce pontes
TTITLE5=Le renard et la belette - Lais
TTITLE6=Yumi-ga-hama - Kodo
TTITLE7=Hamsadhwani tabla duet - Anoushka shankar
TTITLE8=Fiebre de ti - Viega trova santiaguera
TTITLE9=Ya ghusayna-i-bani - Al turath ensemble
TTITLE10=Elle chelle - Andreas vollenweider
TTITLE11=Pukaea (the trumpet) - Oceania
TTITLE12=El talisman - Maria dolores pradera
TTITLE13=Emoton - Varttina
TTITLE14=Voy a ser - Ana gabriel
TTITLE15=Blue touches blue - Noa
TTITLE16=Rosina y virginia - Las damas faez
TTITLE17=A furiosa - Eos guitar quartet
TTITLE18=Y si fuera ella? - Alejandro sanz
EXTD=
EXTT0=
EXTT1=
EXTT2=
EXTT3=
EXTT4=
EXTT5=
EXTT6=
EXTT7=
EXTT8=
EXTT9=
EXTT10=
EXTT11=
EXTT12=
EXTT13=
EXTT14=
EXTT15=
EXTT16=
EXTT17=
EXTT18=
PLAYORDER=
